<?xml version="1.0" encoding="utf-8"?>
<!-- Generator: Adobe Illustrator 24.3.0, SVG Export Plug-In . SVG Version: 6.00 Build 0)  -->
<svg version="1.1" id="Layer_1" xmlns="http://www.w3.org/2000/svg" xmlns:xlink="http://www.w3.org/1999/xlink" x="0px" y="0px"
	 viewBox="0 0 648 297" style="enable-background:new 0 0 648 297;" xml:space="preserve">
<style type="text/css">
	.st0{fill:#46C2EE;}
	.st1{fill:#FFFFFF;}
	.st2{fill:#DFF2F9;}
	.st3{fill:#124E78;}
	.st4{fill:#32B0D3;}
	.st5{fill:#AECC36;}
	.st6{fill:#BCD649;}
	.st7{fill:#EFF1B3;}
	.st8{fill:#CFDCE2;}
	.st9{fill:#B0CCD6;}
	.st10{fill:#E7EFF1;}
	.st11{fill:#53862D;}
</style>
<rect x="152.7" y="100.13" transform="matrix(0.9837 -0.1797 0.1797 0.9837 -22.4266 71.9831)" class="st0" width="466.78" height="119.29"/>
<g>
	<path class="st1" d="M294.59,135.12l11.73,45.56l2.77,17.58l1.63-0.32l1.91-33.75l8.04-1.56l14.42,30.57l1.63-0.32l-4.02-17.34
		l-6.2-46.64l14.19-2.76l9.83,84.13l-16.46,3.2l-12.36-26.02l-0.75,0.15l-1.71,28.75l-16.46,3.2l-22.4-81.69L294.59,135.12z"/>
	<path class="st1" d="M364.31,198.03c-6.02-5.91-10.45-16.2-13.3-30.85c-2.85-14.65-2.59-25.85,0.77-33.59
		c3.36-7.74,9.65-12.5,18.86-14.29c9.21-1.79,16.83,0.27,22.84,6.18c6.02,5.91,10.45,16.2,13.3,30.85
		c2.85,14.66,2.59,25.85-0.77,33.59c-3.36,7.74-9.65,12.5-18.86,14.29C377.94,205.99,370.33,203.95,364.31,198.03z M392.21,159.17
		c-3.81-19.6-10.15-28.53-19.03-26.81c-4.36,0.85-7.2,3.86-8.54,9.03s-1.03,12.83,0.94,22.96c1.97,10.13,4.54,17.35,7.73,21.64
		c3.18,4.29,6.95,6.01,11.3,5.17C393.49,189.42,396.02,178.76,392.21,159.17z"/>
	<path class="st1" d="M441.7,160.24l-11.68,2.27l6.05,31.15l-14.57,2.83l-16.12-82.91l25.37-4.93c8.79-1.71,15.74-0.93,20.86,2.33
		c5.11,3.27,8.54,9.42,10.3,18.46c2.2,11.31,0.24,19.55-5.88,24.74l20.48,31.61l-16.21,3.15L441.7,160.24z M427.92,151.71l9.67-1.88
		c8.46-1.64,11.79-7.07,10-16.28c-1.01-5.19-2.68-8.65-5.01-10.37c-2.33-1.72-6.01-2.09-11.04-1.11l-9.04,1.75L427.92,151.71z"/>
	<path class="st1" d="M531.77,160.2l2.78,14.32l-48.99,9.52l-16.12-82.91l14.57-2.83l13.33,68.59L531.77,160.2z"/>
	<path class="st1" d="M525.98,90.15l24.75-4.81c9.71-1.89,17.61,0.08,23.7,5.89c6.08,5.82,10.49,15.71,13.2,29.7
		c2.9,14.91,2.65,26.04-0.75,33.39c-3.39,7.35-9.78,11.94-19.16,13.76l-25.63,4.98L525.98,90.15z M564.93,155.06
		c4.77-0.93,7.82-3.82,9.13-8.68s0.98-12.4-1.01-22.62c-1.82-9.38-4.36-16.18-7.62-20.42c-3.26-4.23-7.4-5.86-12.42-4.89l-9.92,1.93
		l11.04,56.78L564.93,155.06z"/>
</g>
<g>
	<path class="st2" d="M205.89,116.39c-1.72,1.02-3.33,2.18-4.81,3.47c-0.49-0.68-0.99-1.34-1.5-2.01c-1.66-2.17-3.42-4.29-5.25-6.35
		c1.3-1.29,2.63-2.54,4.08-3.63C201.07,110.54,203.57,113.4,205.89,116.39z"/>
	<path class="st2" d="M219.57,207.4c1.62-7.52,2.44-15.27,2.44-23.16c0-4.45-0.26-8.86-0.78-13.21c-0.24-2.03-0.54-4.05-0.89-6.05
		c0.07-0.04,0.14-0.07,0.21-0.1c1.46-0.67,2.98-1.18,4.53-1.62c0.4,3.53,0.61,7.12,0.61,10.76
		C225.69,185.78,223.52,197.03,219.57,207.4z"/>
	<path class="st0" d="M222.02,184.24c0,7.88-0.83,15.63-2.44,23.16c-11.93,31.34-40.16,54.71-74.28,59.69
		c-4.45,0.65-9,0.99-13.62,0.99h-0.03c-51.86,0-94.05-42.19-94.05-94.05c0-21,6.92-40.42,18.6-56.09
		c7.44-9.98,16.81-18.45,27.55-24.83c14.04-8.34,30.42-13.13,47.89-13.13c6.96,0,13.75,0.76,20.29,2.2c0.2,0.04,0.39,0.09,0.59,0.14
		c13.88,5.43,26.61,13.71,37.46,24.57c0.37,0.37,0.73,0.74,1.1,1.11c1.11,1.15,2.2,2.31,3.25,3.5c1.84,2.06,3.59,4.18,5.25,6.35
		c0.51,0.66,1.01,1.33,1.5,2.01c9.82,13.42,16.37,28.79,19.26,45.14c0.35,2,0.65,4.02,0.89,6.05
		C221.76,175.39,222.02,179.79,222.02,184.24z"/>
	<path class="st3" d="M229.18,162.18c-2.09-17.45-8.77-33.85-19.45-47.77c-2.35-3.07-4.91-6.03-7.64-8.84
		c-0.33-0.33-0.65-0.66-0.98-0.99c-12.95-12.95-28.89-21.84-46.26-26.03c-7.51-1.81-15.29-2.74-23.21-2.74h-0.21
		c-17.38,0.03-34.07,4.56-48.75,13.02c-7.41,4.27-14.3,9.55-20.51,15.75c-2.7,2.7-5.22,5.53-7.56,8.47
		c-13.76,17.29-21.22,38.57-21.22,61c0,26.24,10.22,50.91,28.77,69.47c18.56,18.56,43.23,28.77,69.47,28.77c0.47,0,0.95,0,1.43-0.01
		c3.85-0.05,7.66-0.33,11.42-0.82c15.93-2.06,30.97-7.97,44.01-17.26c4.45-3.17,8.67-6.74,12.62-10.68
		c18.55-18.56,28.77-43.23,28.77-69.47C229.88,170.04,229.65,166.09,229.18,162.18z M177.91,255.89c-9.9,5.62-20.91,9.5-32.62,11.2
		c-4.45,0.65-9,0.99-13.62,0.99h-0.03c-51.86,0-94.05-42.19-94.05-94.05c0-21,6.92-40.42,18.6-56.09
		c7.44-9.98,16.81-18.45,27.55-24.83c11.41-6.78,24.38-11.22,38.22-12.64c3.18-0.32,6.4-0.49,9.67-0.49c6.96,0,13.75,0.76,20.29,2.2
		c17.94,3.96,33.98,13.06,46.48,25.67c2.66,2.69,5.17,5.53,7.49,8.52c10.32,13.26,17.18,29.35,19.18,46.89l0,0
		c0.4,3.53,0.61,7.12,0.61,10.76C225.68,209.09,206.41,239.71,177.91,255.89z"/>
	<path class="st3" d="M229.18,162.18c-2.09-17.45-8.77-33.85-19.45-47.77c-2.35-3.07-4.91-6.03-7.64-8.84
		c-0.33-0.33-0.65-0.66-0.98-0.99c-12.95-12.95-28.89-21.84-46.26-26.03c-7.51-1.81-15.29-2.74-23.21-2.74h-0.21
		c-17.38,0.03-34.07,4.56-48.75,13.02c-7.41,4.27-14.3,9.55-20.51,15.75c-2.7,2.7-5.22,5.53-7.56,8.47
		c-13.76,17.29-21.22,38.57-21.22,61c0,26.24,10.22,50.91,28.77,69.47c18.56,18.56,43.23,28.77,69.47,28.77c0.47,0,0.95,0,1.43-0.01
		c3.85-0.05,7.66-0.33,11.42-0.82c15.93-2.06,30.97-7.97,44.01-17.26c4.45-3.17,8.67-6.74,12.62-10.68
		c18.55-18.56,28.77-43.23,28.77-69.47C229.88,170.04,229.65,166.09,229.18,162.18z M177.91,255.89c-9.9,5.62-20.91,9.5-32.62,11.2
		c-4.45,0.65-9,0.99-13.62,0.99h-0.03c-51.86,0-94.05-42.19-94.05-94.05c0-21,6.92-40.42,18.6-56.09
		c7.44-9.98,16.81-18.45,27.55-24.83c11.41-6.78,24.38-11.22,38.22-12.64c3.18-0.32,6.4-0.49,9.67-0.49c6.96,0,13.75,0.76,20.29,2.2
		c17.94,3.96,33.98,13.06,46.48,25.67c2.66,2.69,5.17,5.53,7.49,8.52c10.32,13.26,17.18,29.35,19.18,46.89l0,0
		c0.4,3.53,0.61,7.12,0.61,10.76C225.68,209.09,206.41,239.71,177.91,255.89z"/>
	<path class="st4" d="M177.91,255.89c-9.9,5.62-20.91,9.5-32.62,11.2c0.47-1.51,1.17-2.91,2.26-4.07c1.54-1.62,3.68-2.52,5.75-3.39
		c2.64-1.1,5.3-2.23,7.87-3.51c2.33,0.17,4.68,0.26,7.06,0.26h0.03C171.52,256.39,174.74,256.21,177.91,255.89z"/>
	<path class="st4" d="M131.67,268.08h-0.03c-51.86,0-94.05-42.19-94.05-94.05c0-21,6.92-40.42,18.6-56.09
		c1.78,5.79,3.17,11.64,2.99,17.66c-0.4,13.11-8.22,26.51-3.27,38.66c1.99,4.89,5.85,8.78,9.94,12.13
		c4.49,3.68,9.38,6.89,14.54,9.54c4.41,11.49,11,21.89,19.28,30.71c0.42,1.22,0.92,2.4,1.55,3.53c5.41,9.76,18.37,13.03,24.64,22.27
		C128.99,257.08,130.11,262.71,131.67,268.08z"/>
	<path class="st4" d="M121.97,80.48c-0.55,0.31-1.09,0.63-1.63,0.94c-9.39,5.58-17.74,12.75-24.66,21.14
		c-0.41-0.3-0.84-0.58-1.27-0.83c-2.69-1.57-5.75-2.61-8.02-4.76c-1.17-1.11-2.04-2.42-2.64-3.86
		C95.16,86.33,108.12,81.9,121.97,80.48z"/>
	<path class="st5" d="M92.78,106.26c-11.68,15.67-18.6,35.09-18.6,56.09c0,11.83,2.19,23.16,6.2,33.6
		c-5.17-2.65-10.05-5.85-14.54-9.54c-4.08-3.35-7.94-7.24-9.94-12.13c-4.95-12.14,2.87-25.55,3.27-38.66
		c0.18-6.02-1.21-11.87-2.99-17.66c7.44-9.98,16.81-18.45,27.55-24.83c0.6,1.44,1.47,2.74,2.64,3.86c2.27,2.14,5.33,3.19,8.02,4.76
		c0.43,0.25,0.86,0.53,1.27,0.83C94.68,103.76,93.72,104.99,92.78,106.26z"/>
	<path class="st5" d="M161.17,256.13c-2.57,1.28-5.24,2.41-7.87,3.51c-2.07,0.86-4.2,1.76-5.75,3.39c-1.1,1.15-1.8,2.55-2.26,4.07
		c-4.45,0.65-9,0.99-13.62,0.99c-1.56-5.38-2.68-11.01-5.81-15.63c-6.27-9.24-19.23-12.51-24.64-22.27
		c-0.63-1.13-1.13-2.31-1.55-3.53C115.33,243.33,136.99,254.33,161.17,256.13z"/>
	<path class="st6" d="M173.15,247.36c-3.25,3.8-7.47,6.51-11.98,8.76c-24.18-1.8-45.85-12.79-61.5-29.48
		c-2.7-7.83-1.96-17.19-7.47-23.35c-2.93-3.28-7.15-5.02-11.08-6.99c-0.25-0.12-0.5-0.25-0.74-0.37c-4.01-10.44-6.2-21.77-6.2-33.6
		c0-21,6.92-40.42,18.6-56.09c0.94-1.25,1.9-2.48,2.89-3.69c2.17,1.58,3.97,3.81,3.9,6.42c-0.07,2.82-2.13,6.14-0.1,8.11
		c0.75,0.72,1.83,0.94,2.87,1.05c4.83,0.5,9.63-0.77,14.39-1.72c4.75-0.94,9.83-1.54,14.34,0.25s8.12,6.67,6.92,11.37
		c-1.07,4.15-5.3,6.65-9.36,8c-4.07,1.35-8.49,2.09-11.89,4.69c-4.9,3.74-6.44,10.27-8.51,16.08c-2.07,5.8-5.96,12.04-12.1,12.6
		c-5.78,0.52-12.32-4.15-16.87-0.55c-3.39,2.69-2.55,8.44,0.58,11.43c3.13,2.98,7.65,3.9,11.92,4.57c4.27,0.68,8.78,1.33,12.2,3.98
		c5.74,4.44,7.22,13.57,13.94,16.29c6.81,2.75,13.8-2.86,20.72-5.31c4.96-1.75,11.73-1.12,13.81,3.71c0.68,1.56,0.73,3.32,1.21,4.95
		c2.69,9.08,15.94,9.73,21.73,17.22C180.18,231.92,178.27,241.39,173.15,247.36z"/>
	<path class="st6" d="M121.65,100.53c1.91,2.87,3.88,5.81,6.67,7.85c1.55,1.14,3.52,1.99,5.37,1.47c1.49-0.42,2.61-1.67,3.35-3.03
		c3.17-5.83-0.02-13.36-6.38-15.17C125.88,90.29,118.07,95.15,121.65,100.53z"/>
	<path class="st7" d="M198.4,107.87c-1.45,1.1-2.78,2.35-4.08,3.63c-1.05-1.19-2.14-2.35-3.25-3.5c-0.37-0.37-0.73-0.74-1.1-1.11
		c-10.85-10.85-23.58-19.14-37.46-24.57C170.22,86.36,186.04,95.39,198.4,107.87z"/>
	<path class="st6" d="M194.32,111.49c-2.49,2.48-4.86,5.12-7.73,7.13c-1.86,1.3-4.02,2.34-6.29,2.34c-2.27,0-4.65-1.28-5.38-3.43
		c-0.99-2.87,1.1-5.78,2.62-8.41c1.52-2.64,2.18-6.68-0.49-8.15c-3.83-2.1-8.97,4.2-12.37,1.46c-2.69-2.17-0.23-7.03-2.35-9.76
		c-2.62-3.36-9.34-0.23-11.67-3.8c-1.27-1.94-0.2-4.54,1.1-6.46c0.05-0.08,0.1-0.15,0.16-0.22c0.2,0.04,0.39,0.09,0.59,0.14
		c13.88,5.43,26.61,13.71,37.46,24.57c0.37,0.37,0.73,0.74,1.1,1.11C192.18,109.15,193.27,110.32,194.32,111.49z"/>
	<path class="st7" d="M225.07,163.26L225.07,163.26c-1.55,0.44-3.07,0.95-4.53,1.62c-0.07,0.03-0.14,0.06-0.21,0.1
		c-2.89-16.34-9.44-31.72-19.26-45.14c1.48-1.29,3.1-2.45,4.81-3.47C216.22,129.65,223.07,145.74,225.07,163.26z"/>
	<path class="st6" d="M220.34,164.99c-3.38,1.6-6.29,4.02-9.48,5.99c-3.24,2.01-7.02,3.59-10.79,3.05c-3.78-0.54-7.34-3.86-7-7.66
		c0.14-1.57,0.89-3,1.2-4.54c0.73-3.6-1-7.17-2.07-10.68c-2.64-8.7-1.07-18.58,4.13-26.04c1.34-1.93,2.94-3.68,4.74-5.24
		C210.9,133.26,217.45,148.65,220.34,164.99z"/>
	<path class="st2" d="M91.99,95.45c-0.81,0-1.6-0.45-1.98-1.23c-0.53-1.09-0.08-2.41,1.01-2.94c9.37-4.59,19.38-7.53,29.75-8.73
		c1.21-0.14,2.3,0.72,2.44,1.93s-0.72,2.3-1.93,2.44c-9.88,1.15-19.41,3.94-28.33,8.31C92.64,95.38,92.31,95.45,91.99,95.45z"/>
	<path class="st2" d="M72.86,244.48c-0.51,0-1.02-0.17-1.43-0.53c-20.38-17.54-32.07-43.01-32.07-69.87
		c0-13.67,2.92-26.83,8.69-39.11c0.52-1.1,1.83-1.57,2.93-1.06c1.1,0.52,1.57,1.83,1.06,2.93c-5.49,11.69-8.27,24.22-8.27,37.24
		c0,25.58,11.13,49.83,30.54,66.54c0.92,0.79,1.02,2.18,0.23,3.1C74.09,244.21,73.48,244.48,72.86,244.48z"/>
	<path class="st7" d="M62.28,118.84c-0.5,0-0.99-0.17-1.4-0.51c-0.93-0.78-1.06-2.16-0.29-3.1c5.61-6.75,12.13-12.66,19.4-17.57
		c1.01-0.68,2.37-0.42,3.05,0.59s0.42,2.37-0.59,3.05c-6.92,4.67-13.13,10.3-18.48,16.74C63.54,118.57,62.91,118.84,62.28,118.84z"
		/>
	<path class="st2" d="M55.02,130.07c-0.08-0.26-0.23-0.49-0.43-0.68c-0.14-0.11-0.28-0.22-0.42-0.33c-0.33-0.19-0.68-0.29-1.06-0.29
		c-0.19,0.02-0.37,0.05-0.56,0.07c-0.36,0.1-0.66,0.28-0.93,0.54c-0.09,0.09-0.18,0.18-0.27,0.27c-0.2,0.19-0.35,0.42-0.43,0.68
		c-0.13,0.25-0.19,0.52-0.18,0.81c-0.01,0.29,0.05,0.56,0.18,0.81c0.08,0.26,0.23,0.49,0.43,0.68c0.14,0.11,0.28,0.22,0.42,0.33
		c0.33,0.19,0.68,0.29,1.06,0.29c0.19-0.02,0.37-0.05,0.56-0.07c0.36-0.1,0.66-0.28,0.93-0.54c0.09-0.09,0.18-0.18,0.27-0.27
		c0.2-0.19,0.35-0.42,0.43-0.68c0.13-0.25,0.19-0.52,0.18-0.81C55.21,130.59,55.15,130.32,55.02,130.07z"/>
	<path class="st2" d="M129.84,83.19c-0.08-0.26-0.23-0.49-0.43-0.68c-0.19-0.2-0.42-0.35-0.68-0.43c-0.25-0.13-0.52-0.19-0.81-0.18
		c-0.19,0.03-0.37,0.05-0.56,0.07c-0.36,0.1-0.66,0.28-0.93,0.54c-0.11,0.14-0.22,0.28-0.33,0.42c-0.19,0.33-0.29,0.68-0.29,1.06
		v0.27c-0.01,0.29,0.05,0.56,0.18,0.81c0.08,0.26,0.23,0.49,0.43,0.68c0.19,0.2,0.42,0.35,0.68,0.43c0.25,0.13,0.52,0.19,0.81,0.18
		c0.19-0.03,0.37-0.05,0.56-0.07c0.36-0.1,0.66-0.28,0.93-0.54c0.11-0.14,0.22-0.28,0.33-0.42c0.19-0.33,0.29-0.68,0.29-1.06V84
		C130.03,83.72,129.97,83.44,129.84,83.19z"/>
	<path class="st2" d="M77.77,244.43c-2.7,0-2.7,4.2,0,4.2C80.47,248.63,80.47,244.43,77.77,244.43z"/>
	<path class="st2" d="M82.43,247.99c-2.7,0-2.7,4.2,0,4.2S85.13,247.99,82.43,247.99z"/>
</g>
<g>
	<g>
		<path class="st2" d="M39.57,280.95c-9.72,0-17.71-2.03-20.51-7.92c-5.02-10.56,10.32-26.32,24.07-37.67
			c0.89-0.74,2.22-0.61,2.95,0.28s0.61,2.22-0.28,2.95c-17.29,14.28-25.87,26.48-22.95,32.64c3.09,6.51,19.21,7.3,43.12,2.13
			c25.52-5.52,57.49-17.07,90.01-32.52c9.02-4.29,17.91-8.79,26.42-13.4c1.02-0.55,2.29-0.17,2.84,0.85
			c0.55,1.02,0.17,2.29-0.85,2.84c-8.57,4.64-17.52,9.18-26.61,13.5c-32.81,15.59-65.1,27.25-90.92,32.83
			C58.01,279.36,48.12,280.95,39.57,280.95z"/>
		<path class="st3" d="M38.31,277.18c-9.72,0-17.71-2.03-20.51-7.92c-5.02-10.56,10.32-26.32,24.07-37.67
			c0.89-0.74,2.22-0.61,2.95,0.28c0.74,0.89,0.61,2.22-0.28,2.95c-17.29,14.28-25.87,26.48-22.95,32.64
			c3.09,6.51,19.21,7.3,43.12,2.13c25.52-5.52,57.49-17.07,90.01-32.52c9.02-4.29,17.91-8.79,26.42-13.4
			c1.02-0.55,2.29-0.17,2.84,0.85c0.55,1.02,0.17,2.29-0.85,2.84c-8.57,4.64-17.52,9.18-26.61,13.5
			c-32.81,15.59-65.1,27.25-90.92,32.83C56.75,275.61,46.86,277.18,38.31,277.18z"/>
		<path class="st2" d="M97.3,282.52c-0.9,0-1.73-0.58-2-1.48c-0.34-1.11,0.28-2.28,1.39-2.62c18.94-5.84,38.96-13.3,59.49-22.17
			c1.06-0.46,2.3,0.03,2.76,1.09c0.46,1.06-0.03,2.3-1.09,2.76c-20.67,8.93-40.83,16.45-59.92,22.33
			C97.71,282.49,97.51,282.52,97.3,282.52z"/>
		<path class="st3" d="M157.26,251.89c-2.7,0-2.7,4.2,0,4.2C159.96,256.08,159.97,251.89,157.26,251.89z"/>
		<path class="st3" d="M47.59,228.32c-2.7,0-2.7,4.2,0,4.2C50.29,232.52,50.29,228.32,47.59,228.32z"/>
		<path class="st3" d="M92.43,280.67c-0.9,0-1.73-0.58-2-1.48c-0.34-1.11,0.28-2.28,1.39-2.62c18.94-5.84,38.96-13.3,59.49-22.17
			c1.06-0.46,2.3,0.03,2.76,1.09c0.46,1.06-0.03,2.3-1.09,2.76c-20.67,8.93-40.83,16.45-59.92,22.33
			C92.84,280.64,92.63,280.67,92.43,280.67z"/>
	</g>
	<g>
		<path class="st3" d="M272.37,173.71c-0.05-0.18-0.1-0.36-0.17-0.53c-0.27-0.73-0.69-1.39-1.23-1.94
			c-0.58-0.58-1.41-0.98-2.14-1.34c-1.52-0.75-3.17-1.23-4.86-1.44c-0.98-0.12-1.97-0.15-2.95-0.09c-1.28,0.08-2.47,0.42-3.68,0.79
			c-0.54,0.17-0.94,0.3-1.44,0.59c-0.61,0.35-1.21,0.7-1.82,1.06c-2.42,1.43-4.81,2.89-7.17,4.4c-2.27,1.44-4.53,2.87-6.8,4.28
			c-0.36,0.22-0.71,0.44-1.07,0.66l-1.38-1l-0.6-0.44c0.52-0.34,1.05-0.69,1.58-1.03c0.07-0.05,0.15-0.1,0.22-0.14
			c0.44-0.28,0.89-0.57,1.11-1.06c0.19-0.44,0.18-0.93,0.04-1.38c-0.5-1.61-1.27-3.13-2.3-4.47c-0.84-1.1-2.06-2.66-3.52-2.92
			c-0.93-0.17-1.66,0.18-2.42,0.65c-0.23,0.14-0.46,0.29-0.68,0.43c-0.01-0.18-0.04-0.36-0.09-0.54c-0.5-1.61-1.27-3.13-2.3-4.47
			c-0.84-1.1-2.06-2.66-3.51-2.92c-0.93-0.17-1.66,0.17-2.43,0.65c-0.92,0.58-1.85,1.17-2.77,1.75l-2.23,1.41
			c-0.43-0.32-0.85-0.63-1.27-0.96c-2.15-1.66-4.41-3.19-6.61-4.77c-0.21-0.21-0.52-0.38-0.76-0.57c-0.27-0.21-0.54-0.42-0.82-0.62
			c-0.55-0.41-1.12-0.79-1.75-1.07c-0.5-0.22-0.99-0.19-1.53-0.21c-0.6-0.01-1.18,0.07-1.75,0.23c-1.13,0.3-2.19,0.89-3.15,1.54
			c-1.24,0.85-3.22,1.97-3.17,3.68c0.03,0.79,0.37,1.53,0.79,2.2c2.85,4.52,5.8,8.98,8.65,13.5c2.9,4.59,5.77,9.2,8.62,13.82
			c0.26,0.43,0.53,0.86,0.79,1.3c0.27,0.45,0.55,0.9,0.82,1.35c-1.76,1.09-3.53,2.19-5.28,3.28c-0.71,0.44-1.42,0.88-2.14,1.31
			c-2.74,1.67-5.51,3.32-8.21,5.08c-1.12,0.73-2.22,1.46-3.32,2.21c-0.56-0.3-1.12-0.6-1.68-0.89c-0.54-0.29-1.07-0.57-1.61-0.86
			c-1.25-0.67-2.5-1.34-3.75-2.01c-0.63-0.34-1.25-0.67-1.88-1c-0.59-0.31-1.17-0.7-1.8-0.92c-0.03-0.01-0.2-0.09-0.23-0.08
			c-0.86-0.26-1.75-0.25-2.56,0.15c-0.97,0.47-1.89,1.04-2.76,1.69c-0.47,0.35-0.91,0.72-1.35,1.11c-0.39,0.36-0.81,0.7-1.11,1.14
			c-0.24,0.34-0.41,0.76-0.39,1.18c0.03,0.79,0.63,1.45,1.04,2.08c0.51,0.78,1.02,1.56,1.54,2.34l3.06,4.67
			c0.08,0.13,0.15,0.25,0.23,0.37c1,1.62,2.11,3.18,3.24,4.72c0,0.86,0.24,1.78,0.59,2.51l0,0c0.03,0.06,0.05,0.11,0.08,0.17
			c0.53,1.02,1.4,1.87,2.43,2.4c0.93,1.9,1.9,3.8,2.99,5.6l2.72,4.88c0.46,0.81,0.91,1.63,1.36,2.44c0.37,0.66,0.68,1.49,1.36,1.89
			c0.37,0.21,0.81,0.25,1.23,0.2c0.53-0.07,1.03-0.27,1.53-0.46c0.55-0.2,1.08-0.43,1.61-0.68c0.97-0.47,1.91-1.02,2.78-1.66
			c0.73-0.54,1.15-1.32,1.31-2.2c0.03-0.02,0.03-0.2,0.04-0.23c0.09-0.66,0.02-1.36,0.02-2.03c-0.01-0.71-0.01-1.42-0.02-2.13
			c-0.01-1.42-0.03-2.84-0.04-4.26c-0.01-1.24-0.02-2.48-0.03-3.72c1.17-0.63,2.34-1.27,3.5-1.92c2.47-1.39,4.9-2.87,7.33-4.33
			c1.04-0.63,2.08-1.26,3.13-1.88c1.79-1.05,3.57-2.11,5.36-3.16c0.53,0.89,1.07,1.77,1.59,2.66c2.78,4.66,5.54,9.34,8.26,14.03
			c2.69,4.62,5.27,9.3,7.96,13.92c0.39,0.68,0.89,1.33,1.58,1.72c1.49,0.84,3.4-0.4,4.73-1.11c1.03-0.55,2.06-1.23,2.85-2.1
			c0.39-0.42,0.73-0.9,0.99-1.43c0.24-0.49,0.49-0.91,0.52-1.45c0.04-0.68-0.03-1.37-0.13-2.05c-0.05-0.34-0.11-0.68-0.17-1.01
			c-0.05-0.3-0.06-0.65-0.16-0.94c-0.39-2.69-0.69-5.4-1.17-8.07c-0.09-0.52-0.18-1.04-0.26-1.57l2.28-1.33
			c0.95-0.55,1.89-1.1,2.84-1.65c0.78-0.45,1.42-0.94,1.7-1.84c0.44-1.41-0.37-3.21-0.97-4.47c-0.71-1.53-1.71-2.92-2.9-4.1
			c-0.13-0.13-0.28-0.24-0.43-0.33c0.24-0.13,0.47-0.27,0.7-0.41c0.78-0.45,1.42-0.94,1.7-1.84c0.44-1.41-0.37-3.21-0.96-4.47
			c-0.72-1.53-1.71-2.92-2.9-4.11c-0.34-0.33-0.76-0.57-1.24-0.6c-0.54-0.04-1.01,0.23-1.46,0.49c-0.08,0.04-0.15,0.08-0.23,0.13
			c-0.55,0.31-1.1,0.62-1.65,0.93l-0.36-2.43c0.36-0.21,0.72-0.43,1.07-0.64c2.31-1.36,4.62-2.71,6.95-4.05
			c2.43-1.4,4.84-2.84,7.22-4.32c0.6-0.37,1.19-0.75,1.78-1.12c0.49-0.31,0.79-0.61,1.18-1.01c0.9-0.9,1.74-1.81,2.41-2.9
			c0.9-1.49,1.56-3.12,1.93-4.82C272.55,177.23,272.8,175.31,272.37,173.71z M233.53,172.21c0.76,0.76,1.38,1.61,1.86,2.58
			c-0.65,0.43-1.3,0.86-1.95,1.28c-0.93-0.68-1.87-1.36-2.8-2.04C231.6,173.43,232.56,172.82,233.53,172.21z M224.52,165.35
			c0.76,0.76,1.38,1.62,1.86,2.58c-0.72,0.47-1.44,0.95-2.15,1.42c-0.41-0.3-0.83-0.6-1.24-0.91c-0.52-0.38-1.05-0.76-1.57-1.13
			C222.45,166.67,223.48,166.01,224.52,165.35z M201.62,162.32c1.02-0.74,2.14-1.36,3.29-1.9c0.39,0.29,0.78,0.57,1.17,0.85
			c9.26,6.74,18.51,13.49,27.77,20.23c0.46,0.34,0.92,0.67,1.38,1c-0.76,0.47-1.51,0.94-2.27,1.41c-3.17,1.97-6.34,3.94-9.52,5.91
			c-0.55,0.34-1.09,0.68-1.64,1.02c-0.54,0.34-1.08,0.67-1.62,1c-0.27-0.45-0.55-0.9-0.83-1.34
			C213.55,181.06,207.64,171.67,201.62,162.32z M187.19,211.43c-1.22-1.91-2.38-3.86-3.48-5.85c0.61-0.48,1.26-0.9,1.94-1.28
			l6.19,3.31l2.23,1.19c-0.41,0.41-0.81,0.84-1.2,1.3c-1.21,1.39-2.27,2.92-3.16,4.54c-0.07,0.11-0.13,0.23-0.18,0.35
			C188.72,213.81,187.94,212.63,187.19,211.43z M201.49,234.93c-2.03-3.09-3.92-6.28-5.66-9.54c0.32-0.01,0.64-0.01,0.96-0.01
			c1.64,0.03,3.35-0.28,4.95-0.66c0.59-0.14,1.15-0.29,1.7-0.47c0.03,3.18,0.05,6.37,0.08,9.55
			C202.87,234.24,202.2,234.63,201.49,234.93z M254.62,214.54c0.63,0.87,1.1,1.82,1.42,2.84c-1.06,0.62-2.11,1.23-3.17,1.85
			c-0.09-0.64-0.18-1.28-0.28-1.92c-0.08-0.51-0.15-1.01-0.23-1.52C253.12,215.39,253.87,214.96,254.62,214.54z M252.72,203.4
			c0.63,0.87,1.1,1.82,1.42,2.85c-0.99,0.57-1.97,1.15-2.95,1.72c-0.17-1.14-0.34-2.29-0.51-3.43
			C251.36,204.15,252.04,203.76,252.72,203.4z M251.11,235.58c0.07,0.49,0.15,0.98,0.22,1.47c-1.01,0.77-2.07,1.47-3.21,2.04
			c-5.74-10.11-11.61-20.15-17.58-30.13c0.55-0.32,1.09-0.65,1.64-0.97c0.55-0.33,1.1-0.65,1.66-0.98c3.21-1.91,6.43-3.81,9.65-5.71
			c0.77-0.45,1.54-0.91,2.3-1.36C247.56,211.84,249.34,223.71,251.11,235.58z M265.9,182.6c-1.64,2.03-4.07,3-6.26,4.3
			c-1.21,0.71-2.43,1.43-3.64,2.15c-2.42,1.43-4.85,2.86-7.27,4.29c-4.85,2.87-9.69,5.73-14.54,8.59c-0.84,0.5-1.69,0.99-2.53,1.49
			c-4,2.37-8.01,4.73-12.01,7.1c-1.06,0.63-2.12,1.24-3.19,1.86c-0.88,0.52-1.76,1.04-2.64,1.57c-1.78,1.04-3.57,2.09-5.35,3.14
			c-1.68,0.99-3.34,2.15-5.17,2.83c-0.69,0.26-1.4,0.48-2.12,0.67s-1.45,0.34-2.19,0.46s-1.48,0.2-2.22,0.24
			c-0.74,0.04-1.49,0.05-2.23,0.01c-0.36-0.02-0.72-0.05-1.07-0.08c-0.2-0.02-0.4-0.04-0.6-0.06c-0.18-0.02-0.3-0.08-0.44-0.18
			c-0.16-0.12-0.3-0.28-0.4-0.45c-0.16-0.27-0.26-0.58-0.13-0.88c0.14-0.32,0.26-0.65,0.4-0.97c0.15-0.34,0.3-0.68,0.46-1.01
			c0.32-0.66,0.68-1.31,1.07-1.94c0.39-0.63,0.81-1.23,1.26-1.82c0.45-0.59,0.93-1.15,1.44-1.69c0.42-0.44,0.86-0.87,1.31-1.28
			c1.45-1.3,3.25-2.23,4.9-3.26c1.75-1.1,3.5-2.19,5.26-3.29c1.06-0.64,2.11-1.3,3.16-1.96c0.86-0.54,1.71-1.08,2.57-1.62
			c3.95-2.45,7.9-4.91,11.85-7.36c0.83-0.52,1.66-1.03,2.49-1.55c4.78-2.97,9.56-5.94,14.35-8.91c2.39-1.49,4.78-2.97,7.18-4.46
			c1.2-0.74,2.39-1.49,3.59-2.23c2.16-1.34,4.14-3.04,6.71-3.55c2.12-0.42,4.4-0.11,6.4,0.68c0.68,0.27,1.34,0.61,1.96,1
			c0.06,0.73,0.05,1.47-0.02,2.2c-0.05,0.49-0.13,0.97-0.24,1.45C267.65,179.71,266.95,181.29,265.9,182.6z"/>
		<path class="st8" d="M256.04,217.4c-1.06,0.62-2.11,1.23-3.17,1.85c-0.09-0.64-0.18-1.28-0.28-1.92
			c-0.08-0.51-0.15-1.01-0.23-1.52c0.75-0.42,1.5-0.83,2.25-1.25C255.25,215.42,255.71,216.37,256.04,217.4z"/>
		<path class="st8" d="M254.14,206.24c-0.99,0.57-1.97,1.15-2.95,1.72c-0.17-1.14-0.34-2.29-0.51-3.43
			c0.68-0.38,1.36-0.76,2.04-1.13C253.35,204.26,253.82,205.21,254.14,206.24z"/>
		<path class="st8" d="M235.39,174.79c-0.65,0.43-1.3,0.86-1.95,1.28c-0.93-0.68-1.87-1.36-2.8-2.04c0.96-0.6,1.92-1.21,2.89-1.82
			C234.29,172.96,234.91,173.82,235.39,174.79z"/>
		<path class="st8" d="M226.38,167.93c-0.72,0.47-1.44,0.95-2.15,1.42c-0.41-0.3-0.83-0.6-1.24-0.91c-0.52-0.38-1.05-0.76-1.57-1.13
			c1.03-0.65,2.06-1.31,3.1-1.96C225.28,166.13,225.9,166.98,226.38,167.93z"/>
		<path class="st8" d="M194.07,208.79c-0.41,0.41-0.81,0.84-1.2,1.3c-1.21,1.39-2.27,2.92-3.16,4.54c-0.07,0.11-0.13,0.23-0.18,0.35
			c-2.08-3.04-4.02-6.17-5.81-9.4c0.61-0.48,1.26-0.9,1.94-1.28C188.46,205.81,191.27,207.29,194.07,208.79z"/>
		<path class="st8" d="M203.53,233.82c-0.65,0.43-1.33,0.81-2.04,1.13c-2.03-3.09-3.92-6.28-5.66-9.54
			c0.32-0.01,0.64-0.01,0.96-0.01c1.64,0.03,3.35-0.28,4.95-0.66c0.59-0.14,1.15-0.29,1.7-0.47
			C203.47,227.45,203.5,230.64,203.53,233.82z"/>
		<path class="st8" d="M251.33,237.05c-1.01,0.77-2.07,1.47-3.21,2.04c-5.74-10.11-11.61-20.15-17.58-30.13
			c0.55-0.32,1.09-0.65,1.64-0.97c3.77-2.23,7.54-4.46,11.31-6.68c0.77-0.45,1.54-0.91,2.3-1.36
			C247.64,212.32,249.48,224.68,251.33,237.05z"/>
		<path class="st8" d="M268.26,176.62c-0.22,2.14-1,4.3-2.36,5.99c-1.64,2.03-4.07,3-6.26,4.3c-1.21,0.71-2.43,1.43-3.64,2.15
			c-2.42,1.43-4.85,2.86-7.27,4.29c-4.85,2.87-9.69,5.73-14.54,8.59s-9.7,5.73-14.54,8.59c-1.94,1.15-3.89,2.26-5.82,3.42
			c-1.78,1.04-3.57,2.09-5.35,3.14c-1.68,0.99-3.34,2.15-5.17,2.83c-0.69,0.26-1.4,0.48-2.11,0.67c-0.72,0.19-1.45,0.34-2.19,0.46
			c-0.73,0.12-1.48,0.2-2.22,0.24c-0.74,0.04-1.49,0.05-2.23,0.01c-0.56-0.03-1.12-0.08-1.67-0.14c-0.18-0.02-0.3-0.08-0.44-0.18
			c-0.16-0.12-0.3-0.28-0.4-0.45c-0.16-0.27-0.26-0.58-0.13-0.88c0.14-0.32,0.26-0.65,0.4-0.97c0.15-0.34,0.3-0.68,0.46-1.01
			c0.32-0.66,0.68-1.31,1.07-1.94c0.39-0.63,0.81-1.23,1.26-1.82c0.45-0.59,0.93-1.15,1.44-1.69c0.42-0.44,0.86-0.87,1.31-1.28
			c1.45-1.3,3.25-2.23,4.9-3.26c1.75-1.1,3.5-2.19,5.26-3.29c1.93-1.17,3.82-2.38,5.73-3.58c4.78-2.97,9.56-5.94,14.35-8.91
			c4.78-2.97,9.56-5.94,14.35-8.91c2.39-1.49,4.78-2.97,7.18-4.46c1.2-0.74,2.39-1.49,3.59-2.23c2.16-1.34,4.14-3.04,6.71-3.55
			c2.12-0.42,4.4-0.11,6.4,0.68c0.68,0.27,1.34,0.61,1.96,1C268.34,175.15,268.33,175.89,268.26,176.62z"/>
		<path class="st9" d="M268.02,178.07c-0.37,1.64-1.07,3.23-2.12,4.54c-1.64,2.03-4.07,3-6.26,4.3c-1.21,0.71-2.43,1.43-3.64,2.15
			c-2.42,1.43-4.85,2.86-7.27,4.29c-4.85,2.87-9.69,5.73-14.54,8.59c-0.84,0.5-1.69,0.99-2.53,1.49c-4,2.37-8.01,4.73-12.01,7.1
			c-1.06,0.63-2.12,1.24-3.19,1.86c-0.88,0.52-1.76,1.04-2.64,1.57c-1.78,1.04-3.57,2.09-5.35,3.14c-1.68,0.99-3.34,2.15-5.17,2.83
			c-0.69,0.26-1.4,0.48-2.12,0.67s-1.45,0.34-2.19,0.46s-1.48,0.2-2.22,0.24c-0.74,0.04-1.49,0.05-2.23,0.01
			c-0.36-0.02-0.72-0.05-1.07-0.08c0.65-0.19,1.3-0.4,1.94-0.64c2.19-0.81,4.18-2.21,6.21-3.4c2.14-1.25,4.28-2.51,6.42-3.77
			c2.32-1.4,4.67-2.74,7-4.11c5.82-3.44,11.65-6.89,17.48-10.32c5.82-3.45,11.65-6.88,17.47-10.33c2.92-1.72,5.83-3.44,8.74-5.16
			c1.46-0.86,2.91-1.72,4.37-2.58C264.74,179.93,266.47,179.12,268.02,178.07z"/>
		<path class="st8" d="M235.23,182.51c-0.76,0.47-1.51,0.94-2.27,1.41c-3.72,2.31-7.44,4.62-11.16,6.93c-0.54,0.34-1.08,0.67-1.62,1
			c-6.07-9.92-12.25-19.76-18.56-29.53c1.02-0.74,2.14-1.36,3.29-1.9C215.01,167.79,225.12,175.15,235.23,182.51z"/>
		<path class="st3" d="M261.8,173.76c-2.59-0.77-3.88,3.22-1.28,4c1.09,0.33,1.39,1.13,1.19,2.2c-0.2,1.12,0.95,2.15,1.98,2.21
			c1.25,0.07,2.01-0.86,2.21-1.98C266.42,177.32,264.53,174.57,261.8,173.76z"/>
		<path class="st10" d="M201.2,213.01c-0.08-0.26-0.23-0.49-0.43-0.68c-0.19-0.2-0.42-0.35-0.68-0.43
			c-0.25-0.13-0.52-0.19-0.81-0.18c-0.19,0.02-0.37,0.05-0.56,0.07c-0.36,0.1-0.66,0.28-0.93,0.54c-0.11,0.14-0.22,0.28-0.33,0.42
			c-0.19,0.33-0.29,0.68-0.29,1.06v0.16c-0.01,0.29,0.05,0.56,0.18,0.81c0.08,0.26,0.23,0.49,0.43,0.68
			c0.19,0.2,0.42,0.35,0.68,0.43c0.25,0.13,0.52,0.19,0.81,0.18c0.19-0.02,0.37-0.05,0.56-0.07c0.36-0.1,0.66-0.28,0.93-0.54
			c0.11-0.14,0.22-0.28,0.33-0.42c0.19-0.33,0.29-0.68,0.29-1.06v-0.17C201.39,213.54,201.33,213.26,201.2,213.01z"/>
		<path class="st10" d="M254.7,177.01L202.59,209c-2.3,1.41-0.25,5.07,2.06,3.66c17.37-10.66,34.74-21.32,52.11-31.99
			C259.06,179.26,257.01,175.59,254.7,177.01z"/>
		<path class="st9" d="M223.43,189.85c-0.55,0.34-1.09,0.68-1.64,1.02c-0.54,0.34-1.08,0.67-1.62,1
			c-6.07-9.92-12.25-19.76-18.56-29.53c1.02-0.74,2.14-1.36,3.29-1.9c0.39,0.29,0.78,0.57,1.17,0.85
			C210.41,168.38,216.7,178.74,223.43,189.85z"/>
		<path class="st9" d="M251.33,237.05c-1.01,0.77-2.07,1.47-3.21,2.04c-5.74-10.11-11.61-20.15-17.58-30.13
			c0.55-0.32,1.09-0.65,1.64-0.97c0.55-0.33,1.1-0.65,1.66-0.98c6.53,10.78,12.74,21.06,17.28,28.56
			C251.18,236.08,251.26,236.57,251.33,237.05z"/>
	</g>
</g>
<g>
	<path class="st11" d="M481.76,51.31l-6.41,1.25l4.03,20.71l-4.32,0.84l-4.03-20.71l-6.4,1.24l-0.75-3.87l17.13-3.33L481.76,51.31z"
		/>
	<path class="st11" d="M497.95,44.14l4.78,24.58l-4.32,0.84l-2.16-11.1l-6.63,1.29l2.16,11.1l-4.32,0.84l-4.78-24.58l4.32-0.84
		l1.87,9.61l6.63-1.29l-1.87-9.61L497.95,44.14z"/>
	<path class="st11" d="M520.22,61.3l0.75,3.87l-15.27,2.97l-4.78-24.58l14.75-2.87l0.75,3.87L506,46.6l1.22,6.29l9.91-1.93l0.68,3.5
		l-9.91,1.93l1.37,7.04L520.22,61.3z"/>
</g>
<g>
	<path class="st3" d="M275.08,105.03l1.47,7.54c-0.84,0.58-2.19,1.06-4.07,1.42c-4.62,0.9-7.78-1.1-9.47-5.99l-0.23,0.04
		c0.13,2.56-0.41,4.61-1.61,6.16c-1.2,1.55-3.27,2.61-6.22,3.19c-3.45,0.67-6.39,0.12-8.82-1.65c-2.43-1.77-4-4.51-4.72-8.21
		c-0.75-3.86-0.17-7.03,1.75-9.51s4.73-4.08,8.44-4.8c1.88-0.37,3.4-0.52,4.58-0.46c1.17,0.06,2.36,0.21,3.57,0.45l0.15-0.03
		l-0.25-1.29c-0.53-2.74-1.56-4.58-3.09-5.53c-1.53-0.94-3.94-1.09-7.24-0.45c-2.08,0.4-4.02,0.99-5.82,1.77
		c-1.8,0.77-3.22,1.49-4.24,2.17l-1.63-7.99c1.03-0.67,2.5-1.39,4.4-2.16c1.91-0.76,3.88-1.35,5.91-1.74
		c6.2-1.2,10.92-0.78,14.16,1.28c3.25,2.06,5.38,5.7,6.39,10.93l2.28,11.73c0.3,1.52,0.65,2.55,1.07,3.07
		c0.42,0.53,0.98,0.72,1.69,0.58C273.98,105.48,274.5,105.29,275.08,105.03z M261.77,102.87l-0.9-4.65l-6.78,1.32
		c-1.52,0.3-2.64,0.94-3.34,1.92c-0.71,0.98-0.92,2.18-0.64,3.6c0.28,1.42,0.9,2.51,1.86,3.28c0.96,0.76,2.23,0.99,3.81,0.68
		C259.07,108.38,261.07,106.32,261.77,102.87z"/>
	<path class="st3" d="M312.21,97.57l1.54,7.92c-0.65,0.44-1.66,0.8-3.04,1.06c-2.34,0.45-4.59,0.31-6.76-0.43
		c-2.17-0.74-4.08-2.15-5.72-4.22c-1.64-2.08-2.79-4.82-3.46-8.22c-1-5.13-0.55-10.41,1.35-15.84l-0.07-0.38l-10.06,1.95
		c1.22,9.25,2.13,19.51,2.74,30.78l-10.21,1.98c0.23-6.42,0.26-12.62,0.1-18.6c-0.16-5.98-0.51-11.05-1.06-15.21
		c-1.14-0.46-2.12-1.2-2.92-2.2c-0.8-1-1.34-2.19-1.6-3.56c-0.36-1.88-0.01-3.65,1.06-5.31c1.07-1.66,2.88-2.73,5.42-3.23
		c1.47-0.29,2.8-0.39,3.97-0.3c0.32,1.63,0.76,4.18,1.33,7.65l18.51-3.6l1.54,7.92c-0.85,1.32-1.5,3.23-1.93,5.71
		c-0.44,2.49-0.41,5,0.08,7.54c0.67,3.46,1.69,5.91,3.05,7.35c1.36,1.45,2.93,2,4.71,1.65C311.35,97.9,311.82,97.76,312.21,97.57z"
		/>
	<path class="st3" d="M320.03,99.18c-3.49-3.04-5.81-7.53-6.97-13.47s-0.68-10.98,1.41-15.1c2.1-4.12,5.63-6.67,10.61-7.64
		c4.98-0.97,9.21,0.08,12.71,3.14c3.49,3.06,5.81,7.54,6.96,13.43s0.67,10.91-1.42,15.06c-2.09,4.15-5.63,6.71-10.61,7.67
		C327.76,103.24,323.52,102.21,320.03,99.18z M335.87,90.13c0.73-2.35,0.75-5.31,0.06-8.87c-0.69-3.55-1.82-6.29-3.37-8.2
		c-1.56-1.91-3.53-2.63-5.92-2.17s-3.94,1.87-4.67,4.23c-0.73,2.35-0.75,5.31-0.06,8.87c0.69,3.55,1.81,6.29,3.37,8.2
		s3.53,2.64,5.92,2.17C333.58,93.9,335.14,92.49,335.87,90.13z"/>
	<path class="st3" d="M385.24,83.62l1.47,7.54c-0.84,0.58-2.14,1.05-3.92,1.39c-4.37,0.85-7.52-0.83-9.44-5.04l-0.23,0.04
		c0.16,2.18-0.32,3.98-1.44,5.38c-1.12,1.4-2.78,2.32-4.96,2.74c-3.5,0.68-6.47-0.07-8.9-2.26c-2.43-2.19-4.12-5.72-5.06-10.6
		l-3.07-15.77l-3.73,0.73l-1.54-7.92l12.57-2.44l4.19,21.56c0.63,3.25,1.39,5.54,2.29,6.87c0.89,1.33,2.28,1.81,4.15,1.45
		c2.39-0.46,3.78-2.24,4.18-5.32l-5.14-26.44l8.84-1.72l5.2,26.74c0.29,1.47,0.65,2.48,1.1,3.03c0.45,0.55,1.13,0.73,2.04,0.55
		C384.19,84.06,384.66,83.89,385.24,83.62z"/>
	<path class="st3" d="M421.81,76.51l1.47,7.54c-0.83,0.58-2.17,1.05-4,1.41c-3.3,0.64-5.72,0.21-7.25-1.28s-2.61-3.87-3.24-7.12
		l-3.01-15.47c-0.39-2.03-1.03-3.45-1.89-4.26c-0.87-0.81-2.14-1.05-3.82-0.72c-2.49,0.48-4.01,1.89-4.56,4.21l5.36,27.58
		l-8.84,1.72l-7.4-38.09l5.18-1.01l4.19,5.67l0.38-0.07c-0.48-4.65,1.84-7.47,6.97-8.47c3.76-0.73,6.69-0.09,8.79,1.93
		s3.54,5,4.31,8.97l2.8,14.4c0.26,1.32,0.59,2.3,1,2.93s1.1,0.85,2.07,0.67C420.89,76.93,421.38,76.75,421.81,76.51z"/>
	<path class="st3" d="M457.76,69.64c0.26-0.13,0.47-0.21,0.63-0.24l1.47,7.54c-0.84,0.58-2.07,1.03-3.69,1.35
		c-2.44,0.47-4.45,0.28-6.04-0.57s-2.83-2.37-3.73-4.57l-0.23,0.04c0.18,2.29-0.23,4.12-1.22,5.5c-1,1.38-2.46,2.26-4.39,2.63
		c-2.79,0.54-5.4,0.22-7.82-0.97s-4.48-3.13-6.19-5.83c-1.71-2.7-2.95-6-3.71-9.91c-0.79-4.06-0.85-7.71-0.19-10.95
		s1.89-5.86,3.69-7.87s3.96-3.26,6.5-3.75c3.96-0.77,6.72,0.94,8.27,5.11l0.53-0.1l-2.27-8.02l-3.26-16.76l8.84-1.72l8.9,45.79
		c0.29,1.47,0.65,2.48,1.1,3.03c0.45,0.55,1.13,0.73,2.04,0.55C457.23,69.86,457.49,69.76,457.76,69.64z M445.07,68.43l-3.29-16.91
		c-0.81-0.9-1.7-1.49-2.68-1.77c-0.98-0.28-1.97-0.33-2.99-0.13c-2.13,0.41-3.6,1.77-4.39,4.05c-0.79,2.29-0.82,5.34-0.08,9.15
		c1.5,7.72,4.59,11.13,9.26,10.22C442.83,72.65,444.22,71.13,445.07,68.43z"/>
</g>
</svg>
